
<svg width="60px" height="16px" viewBox="0 0 60 16" version="1.1" xmlns="http://www.w3.org/2000/svg" xmlns:xlink="http://www.w3.org/1999/xlink">
    <!-- Generator: Sketch 48.1 (47250) - http://www.bohemiancoding.com/sketch -->
    <desc>Created with Sketch.</desc>
    <defs></defs>
    <g id="Hot_Sauce_Site" stroke="none" stroke-width="1" fill="none" fill-rule="evenodd">
        <g id="Home_Mobile" transform="translate(-74.000000, -824.000000)" fill="#FF2B00">
            <path d="M85.2285156,834.488281 C85.0527335,835.992195 84.497726,837.152665 83.5634766,837.969727 C82.6292271,838.786788 81.3873775,839.195312 79.8378906,839.195312 C78.1581947,839.195312 76.8121795,838.593105 75.7998047,837.388672 C74.7874298,836.184239 74.28125,834.572927 74.28125,832.554688 L74.28125,831.1875 C74.28125,829.865879 74.5172502,828.703781 74.9892578,827.701172 C75.4612654,826.698563 76.130204,825.928714 76.9960938,825.391602 C77.8619835,824.85449 78.8645776,824.585938 80.0039062,824.585938 C81.5143305,824.585938 82.7252559,825.007483 83.6367188,825.850586 C84.5481816,826.693689 85.0787753,827.86067 85.2285156,829.351562 L83.34375,829.351562 C83.1809888,828.218744 82.8278022,827.39844 82.2841797,826.890625 C81.7405572,826.38281 80.9804736,826.128906 80.0039062,826.128906 C78.8059836,826.128906 77.8668654,826.57161 77.1865234,827.457031 C76.5061815,828.342452 76.1660156,829.602205 76.1660156,831.236328 L76.1660156,832.613281 C76.1660156,834.156258 76.488278,835.383459 77.1328125,836.294922 C77.777347,837.206385 78.6790307,837.662109 79.8378906,837.662109 C80.8795625,837.662109 81.6787082,837.426109 82.2353516,836.954102 C82.791995,836.482094 83.1614574,835.660162 83.34375,834.488281 L85.2285156,834.488281 Z M89.671875,837.466797 L96.4101562,837.466797 L96.4101562,839 L87.7871094,839 L87.7871094,824.78125 L89.671875,824.78125 L89.671875,837.466797 Z M109.486328,832.349609 C109.486328,833.742846 109.251955,834.958654 108.783203,835.99707 C108.314451,837.035487 107.650395,837.828122 106.791016,838.375 C105.931636,838.921878 104.929042,839.195312 103.783203,839.195312 C102.663406,839.195312 101.670577,838.92025 100.804688,838.370117 C99.9387978,837.819984 99.266604,837.035487 98.7880859,836.016602 C98.3095679,834.997716 98.0638021,833.817715 98.0507812,832.476562 L98.0507812,831.451172 C98.0507812,830.083978 98.2884091,828.876307 98.7636719,827.828125 C99.2389347,826.779943 99.9111285,825.977542 100.780273,825.420898 C101.649418,824.864255 102.643875,824.585938 103.763672,824.585938 C104.903,824.585938 105.907222,824.861 106.776367,825.411133 C107.645512,825.961266 108.314451,826.758784 108.783203,827.803711 C109.251955,828.848638 109.486328,830.064446 109.486328,831.451172 L109.486328,832.349609 Z M107.621094,831.431641 C107.621094,829.745434 107.282555,828.451502 106.605469,827.549805 C105.928382,826.648107 104.981126,826.197266 103.763672,826.197266 C102.57877,826.197266 101.646162,826.648107 100.96582,827.549805 C100.285478,828.451502 99.935547,829.703117 99.9160156,831.304688 L99.9160156,832.349609 C99.9160156,833.983732 100.259437,835.267899 100.946289,836.202148 C101.633141,837.136398 102.57877,837.603516 103.783203,837.603516 C104.994147,837.603516 105.931637,837.162439 106.595703,836.280273 C107.259769,835.398108 107.601562,834.133472 107.621094,832.486328 L107.621094,831.431641 Z M116.488281,832.662109 C114.8802,832.199867 113.709965,831.631839 112.977539,830.958008 C112.245114,830.284176 111.878906,829.452479 111.878906,828.462891 C111.878906,827.343093 112.326493,826.416996 113.22168,825.68457 C114.116866,824.952145 115.280592,824.585938 116.712891,824.585938 C117.689458,824.585938 118.560218,824.774738 119.325195,825.152344 C120.090173,825.52995 120.682615,826.050778 121.102539,826.714844 C121.522463,827.37891 121.732422,828.104814 121.732422,828.892578 L119.847656,828.892578 C119.847656,828.033199 119.574221,827.35775 119.027344,826.866211 C118.480466,826.374672 117.708989,826.128906 116.712891,826.128906 C115.788407,826.128906 115.067385,826.332355 114.549805,826.739258 C114.032224,827.146161 113.773438,827.710934 113.773438,828.433594 C113.773438,829.013024 114.019203,829.502928 114.510742,829.90332 C115.002281,830.303713 115.838861,830.66992 117.020508,831.001953 C118.202154,831.333986 119.126624,831.700193 119.793945,832.100586 C120.461266,832.500979 120.956053,832.968096 121.27832,833.501953 C121.600588,834.03581 121.761719,834.664059 121.761719,835.386719 C121.761719,836.539068 121.312504,837.461911 120.414062,838.155273 C119.515621,838.848636 118.314461,839.195312 116.810547,839.195312 C115.833979,839.195312 114.92253,839.00814 114.076172,838.633789 C113.229813,838.259438 112.577151,837.746748 112.118164,837.095703 C111.659177,836.444658 111.429688,835.705733 111.429688,834.878906 L113.314453,834.878906 C113.314453,835.738286 113.631833,836.41699 114.266602,836.915039 C114.90137,837.413088 115.749344,837.662109 116.810547,837.662109 C117.800135,837.662109 118.558591,837.460288 119.085938,837.056641 C119.613284,836.652993 119.876953,836.102868 119.876953,835.40625 C119.876953,834.709632 119.632815,834.1709 119.144531,833.790039 C118.656248,833.409178 117.77084,833.033205 116.488281,832.662109 Z M132.201172,832.427734 L126.039062,832.427734 L126.039062,837.466797 L133.197266,837.466797 L133.197266,839 L124.164062,839 L124.164062,824.78125 L133.099609,824.78125 L133.099609,826.324219 L126.039062,826.324219 L126.039062,830.894531 L132.201172,830.894531 L132.201172,832.427734 Z" id="CLOSE"></path>
        </g>
    </g>
</svg>